<svg class="sharp-c-header__logo-svg@mobile" xmlns="http://www.w3.org/2000/svg" width="256" height="33" viewBox="0 0 256 33" fill="none">
                <g clip-path="url(#a)">
                    <g clip-path="url(#b)">
                        <path d="M15.9718 22.3769C15.9878 22.3744 16.0067 22.3709 16.0214 22.3676L14.6488 26.0811H14.575H9.27821H9.20426L10.5298 22.9018H10.5762H10.5779C10.9464 22.9018 13.4315 22.8804 15.9758 22.3676L15.9718 22.3769ZM90.0718 13.3637C90.0718 17.5616 86.7541 20.2632 81.2883 20.2632H77.9989V26.0811H63.1462L57.153 18.1803V26.0811H42.8262L41.2527 21.7457C41.1509 21.7257 39.5527 21.4247 37.6629 21.4247C35.7799 21.4247 34.11 21.7194 34.0162 21.7357L32.402 26.0811H25.0971L23.9069 22.7814C25.6959 23.2273 27.0679 23.96 27.7514 24.3655L28.0547 23.6197C26.9515 22.9645 23.8691 21.4039 19.447 21.4039C16.0244 21.4039 13.8483 22.2398 10.2931 22.2398C4.51658 22.2398 0.533885 19.4273 0.325745 19.2874L1.86068 15.5362C2.25819 15.7962 6.09847 18.2758 10.5216 18.2758C11.2729 18.2758 11.9166 18.2367 12.5157 18.1768L17.3116 6.46203H17.9988H21.9186H25.2836L30.0297 18.7653L35.0531 6.46203H43.0361L50.0209 24.5681V6.46203H59.5647C66.0537 6.46203 69.2315 9.43968 69.2315 13.3637C69.2315 17.2916 66.1417 18.8059 65.2827 19.1954L70.873 25.2761V6.46203H81.2883C87.0462 6.46203 90.0718 9.37696 90.0718 13.3637ZM22.1252 17.8475L19.9349 11.8064L17.7886 17.5922C18.1532 17.5792 18.5404 17.5704 18.9597 17.5704C20.7 17.5704 21.986 17.8207 22.1252 17.8475ZM39.8481 17.7241L37.6629 11.8824L35.4378 17.7241C35.5404 17.7116 36.7378 17.5724 37.6629 17.5724C38.6509 17.5724 39.7416 17.7065 39.8481 17.7241ZM61.9008 13.3637C61.9008 11.4157 60.9199 9.69544 58.2014 9.69544H57.153V17.0167H58.2014C60.6483 17.0167 61.9008 15.6287 61.9008 13.3637ZM82.7392 13.3637C82.7392 11.2289 81.6067 9.69544 79.4459 9.69544H77.9989V17.0167H79.4459C81.4758 17.0167 82.7392 15.645 82.7392 13.3637Z" fill="white"></path>
                        <path d="M92.0921 6.46207C93.1783 6.46207 94.0443 7.3453 94.0443 8.44994C94.0443 9.57165 93.1783 10.4453 92.0825 10.4453C90.9962 10.4453 90.1129 9.57165 90.1129 8.44994C90.1129 7.3453 90.9962 6.46207 92.0825 6.46207H92.0921ZM92.0825 6.77157C91.2081 6.77157 90.4916 7.52261 90.4916 8.44994C90.4916 9.39408 91.2081 10.1364 92.0921 10.1364C92.9742 10.1456 93.681 9.39408 93.681 8.45873C93.681 7.52261 92.9742 6.77157 92.0921 6.77157H92.0825ZM91.7108 9.606H91.3583V7.38921C91.5432 7.36334 91.7197 7.3365 91.9862 7.3365C92.3213 7.3365 92.5421 7.40725 92.6756 7.5038C92.8053 7.60106 92.8772 7.75154 92.8772 7.96345C92.8772 8.2551 92.6827 8.4319 92.4445 8.50258V8.52017C92.6384 8.55599 92.7713 8.73157 92.8156 9.05859C92.8695 9.40365 92.9215 9.53577 92.9575 9.606H92.5858C92.5331 9.53577 92.4798 9.33342 92.4362 9.041C92.3829 8.7584 92.2417 8.65229 91.9592 8.65229H91.7108V9.606ZM91.7108 8.379H91.9682C92.2584 8.379 92.5062 8.27314 92.5062 7.99908C92.5062 7.80469 92.3649 7.60985 91.9682 7.60985C91.8533 7.60985 91.773 7.61987 91.7108 7.62789V8.379Z" fill="white"></path>
                        <path d="M100.708 21.4908C101.353 22.0992 102.09 22.597 102.92 22.9842C103.75 23.3529 104.579 23.5373 105.409 23.5373C106.442 23.5373 107.225 23.3253 107.76 22.9012C108.294 22.4772 108.562 21.9148 108.562 21.2142C108.562 20.8455 108.488 20.5321 108.341 20.2739C108.211 20.0158 108.018 19.7946 107.76 19.6102C107.52 19.4074 107.225 19.223 106.875 19.0571C106.543 18.8912 106.174 18.7252 105.769 18.5593L103.28 17.4807C102.837 17.2964 102.395 17.0659 101.952 16.7894C101.528 16.5128 101.141 16.1809 100.791 15.7938C100.44 15.4066 100.155 14.9549 99.9333 14.4386C99.7305 13.9224 99.6291 13.3324 99.6291 12.6687C99.6291 11.9496 99.7766 11.2859 100.072 10.6775C100.385 10.0506 100.809 9.50674 101.344 9.04582C101.878 8.58489 102.514 8.22537 103.252 7.96725C104.008 7.70914 104.828 7.58008 105.713 7.58008C106.764 7.58008 107.778 7.7921 108.755 8.21615C109.733 8.62177 110.571 9.17488 111.272 9.87548L109.64 11.922C109.05 11.4426 108.442 11.0647 107.815 10.7881C107.188 10.5116 106.488 10.3733 105.713 10.3733C104.847 10.3733 104.155 10.5669 103.639 10.954C103.123 11.3228 102.865 11.839 102.865 12.5028C102.865 12.8531 102.939 13.1573 103.086 13.4154C103.252 13.6551 103.464 13.8763 103.722 14.0791C103.999 14.2635 104.312 14.4386 104.662 14.6046C105.013 14.7521 105.372 14.8996 105.741 15.0471L108.202 16.0703C108.737 16.2916 109.226 16.5497 109.668 16.8447C110.11 17.1397 110.488 17.4807 110.802 17.8679C111.134 18.2551 111.392 18.7068 111.576 19.223C111.761 19.7208 111.853 20.3016 111.853 20.9653C111.853 21.7028 111.705 22.3942 111.41 23.0395C111.115 23.6848 110.682 24.2563 110.11 24.7541C109.557 25.2335 108.875 25.6207 108.064 25.9157C107.271 26.1922 106.368 26.3305 105.354 26.3305C104.137 26.3305 102.957 26.1 101.814 25.6391C100.689 25.1782 99.6936 24.5237 98.8271 23.6756L100.708 21.4908Z" fill="white"></path>
                        <path d="M114.369 14.9354H112.433V12.557L114.535 12.4187L114.922 8.71289H117.577V12.4187H121.034V14.9354H117.577V21.4068C117.577 22.9923 118.213 23.7851 119.486 23.7851C119.725 23.7851 119.965 23.7575 120.205 23.7022C120.463 23.6468 120.693 23.5731 120.896 23.4809L121.449 25.8316C121.08 25.9607 120.656 26.0713 120.177 26.1635C119.716 26.2741 119.218 26.3294 118.684 26.3294C117.891 26.3294 117.218 26.2096 116.665 25.9699C116.13 25.7302 115.688 25.3984 115.337 24.9743C115.005 24.5318 114.757 24.0156 114.591 23.4256C114.443 22.8172 114.369 22.1442 114.369 21.4068V14.9354Z" fill="white"></path>
                        <path d="M122.5 22.3481C122.5 20.8916 123.136 19.7669 124.408 18.9741C125.68 18.1813 127.708 17.6282 130.492 17.3148C130.492 16.9645 130.446 16.6326 130.354 16.3192C130.262 15.9873 130.114 15.7015 129.912 15.4619C129.727 15.2037 129.478 15.0102 129.165 14.8811C128.87 14.7336 128.492 14.6598 128.031 14.6598C127.349 14.6598 126.685 14.7889 126.04 15.047C125.413 15.3051 124.805 15.6186 124.215 15.9873L123.053 13.8578C123.809 13.3785 124.648 12.9636 125.57 12.6133C126.51 12.263 127.524 12.0879 128.612 12.0879C130.326 12.0879 131.599 12.5949 132.428 13.6089C133.258 14.6045 133.673 16.0518 133.673 17.9509V25.9986H131.073L130.824 24.5052H130.741C130.133 25.0214 129.478 25.4547 128.778 25.805C128.096 26.1553 127.349 26.3305 126.538 26.3305C125.339 26.3305 124.362 25.9709 123.606 25.2519C122.869 24.5144 122.5 23.5465 122.5 22.3481ZM125.597 22.0992C125.597 22.7076 125.773 23.1501 126.123 23.4266C126.492 23.7032 126.962 23.8415 127.533 23.8415C128.086 23.8415 128.593 23.7124 129.054 23.4543C129.515 23.1962 129.995 22.8274 130.492 22.3481V19.306C129.571 19.4166 128.796 19.5641 128.169 19.7485C127.542 19.9328 127.035 20.1449 126.648 20.3845C126.28 20.6058 126.012 20.8639 125.846 21.1589C125.68 21.4539 125.597 21.7673 125.597 22.0992Z" fill="white"></path>
                        <path d="M136.383 28.8186C136.512 28.8555 136.66 28.8924 136.826 28.9293C137.01 28.9846 137.185 29.0122 137.351 29.0122C138.07 29.0122 138.642 28.791 139.066 28.3485C139.508 27.9245 139.84 27.3713 140.061 26.6892L140.31 25.8319L134.973 12.4189H138.208L140.559 19.0839C140.762 19.6739 140.955 20.3008 141.14 20.9645C141.343 21.6098 141.545 22.2551 141.748 22.9004H141.859C142.025 22.2735 142.191 21.6374 142.357 20.9921C142.541 20.3284 142.716 19.6923 142.882 19.0839L144.929 12.4189H147.998L143.076 26.6062C142.799 27.3806 142.495 28.072 142.163 28.6804C141.831 29.2888 141.444 29.805 141.001 30.2291C140.577 30.6716 140.08 31.0034 139.508 31.2247C138.955 31.4644 138.31 31.5842 137.572 31.5842C137.203 31.5842 136.881 31.5565 136.604 31.5012C136.328 31.4644 136.06 31.3998 135.802 31.3076L136.383 28.8186Z" fill="white"></path>
                        <path d="M151.317 10.0418C150.745 10.0418 150.275 9.87588 149.906 9.54402C149.538 9.21215 149.353 8.77888 149.353 8.24421C149.353 7.70953 149.538 7.27627 149.906 6.9444C150.275 6.5941 150.745 6.41895 151.317 6.41895C151.888 6.41895 152.358 6.5941 152.727 6.9444C153.096 7.27627 153.28 7.70953 153.28 8.24421C153.28 8.77888 153.096 9.21215 152.727 9.54402C152.358 9.87588 151.888 10.0418 151.317 10.0418ZM149.713 12.4202H152.893V25.999H149.713V12.4202Z" fill="white"></path>
                        <path d="M155.769 12.4198H158.396L158.617 14.245H158.728C159.336 13.655 159.991 13.148 160.692 12.724C161.411 12.2999 162.24 12.0879 163.181 12.0879C164.637 12.0879 165.697 12.558 166.361 13.4983C167.025 14.4202 167.357 15.7476 167.357 17.4807V25.9986H164.176V17.8955C164.176 16.7709 164.01 15.9781 163.678 15.5172C163.346 15.0562 162.803 14.8258 162.047 14.8258C161.457 14.8258 160.931 14.9733 160.47 15.2683C160.028 15.5448 159.521 15.9597 158.949 16.5128V25.9986H155.769V12.4198Z" fill="white"></path>
                        <path d="M171.809 27.9898C171.809 28.5982 172.113 29.0684 172.721 29.4002C173.348 29.7505 174.206 29.9257 175.293 29.9257C176.4 29.9257 177.285 29.7044 177.948 29.2619C178.631 28.8379 178.972 28.3309 178.972 27.7409C178.972 27.2062 178.76 26.8467 178.336 26.6623C177.93 26.478 177.34 26.3858 176.566 26.3858H174.713C173.975 26.3858 173.358 26.3212 172.86 26.1922C172.159 26.7269 171.809 27.3261 171.809 27.9898ZM169.154 28.4599C169.154 27.8884 169.32 27.3537 169.652 26.8559C169.984 26.3766 170.463 25.9433 171.09 25.5561V25.4455C170.739 25.2242 170.444 24.9293 170.205 24.5605C169.984 24.1918 169.873 23.7308 169.873 23.1777C169.873 22.6431 170.02 22.1637 170.315 21.7397C170.629 21.2972 170.979 20.9376 171.366 20.6611V20.5505C170.905 20.2002 170.491 19.7208 170.122 19.1124C169.772 18.4855 169.596 17.7665 169.596 16.9553C169.596 16.1809 169.744 15.4895 170.039 14.8811C170.334 14.2727 170.721 13.7657 171.2 13.36C171.698 12.936 172.27 12.6226 172.915 12.4198C173.56 12.1985 174.243 12.0879 174.962 12.0879C175.33 12.0879 175.681 12.1248 176.012 12.1985C176.363 12.2538 176.676 12.3276 176.953 12.4198H181.82V14.7705H179.331C179.552 15.0286 179.737 15.3605 179.884 15.7661C180.032 16.1532 180.105 16.5865 180.105 17.0659C180.105 17.8218 179.967 18.4855 179.691 19.0571C179.433 19.6286 179.073 20.108 178.612 20.4952C178.151 20.8823 177.607 21.1773 176.98 21.3801C176.354 21.5829 175.681 21.6843 174.962 21.6843C174.667 21.6843 174.362 21.6567 174.049 21.6014C173.735 21.5461 173.422 21.4539 173.109 21.3248C172.906 21.5092 172.74 21.6936 172.611 21.8779C172.5 22.0623 172.445 22.3112 172.445 22.6246C172.445 23.0118 172.602 23.316 172.915 23.5373C173.247 23.7585 173.828 23.8691 174.657 23.8691H177.063C178.704 23.8691 179.94 24.1365 180.769 24.6711C181.617 25.1874 182.041 26.0355 182.041 27.2154C182.041 27.8792 181.866 28.506 181.516 29.096C181.184 29.686 180.705 30.193 180.078 30.6171C179.451 31.0411 178.686 31.373 177.782 31.6127C176.897 31.8708 175.902 31.9998 174.796 31.9998C173.984 31.9998 173.228 31.9261 172.528 31.7786C171.846 31.6311 171.256 31.4099 170.758 31.1149C170.26 30.8199 169.864 30.4511 169.569 30.0086C169.292 29.5662 169.154 29.0499 169.154 28.4599ZM174.962 19.6931C175.607 19.6931 176.16 19.4627 176.621 19.0018C177.082 18.5224 177.312 17.8402 177.312 16.9553C177.312 16.1072 177.082 15.4526 176.621 14.9917C176.178 14.5124 175.625 14.2727 174.962 14.2727C174.298 14.2727 173.735 14.5031 173.275 14.9641C172.814 15.425 172.583 16.0887 172.583 16.9553C172.583 17.8402 172.814 18.5224 173.275 19.0018C173.735 19.4627 174.298 19.6931 174.962 19.6931Z" fill="white"></path>
                        <path d="M189.425 21.4908C190.07 22.0992 190.807 22.597 191.637 22.9842C192.467 23.3529 193.296 23.5373 194.126 23.5373C195.159 23.5373 195.942 23.3253 196.477 22.9012C197.011 22.4772 197.279 21.9148 197.279 21.2142C197.279 20.8455 197.205 20.5321 197.058 20.2739C196.929 20.0158 196.735 19.7946 196.477 19.6102C196.237 19.4074 195.942 19.223 195.592 19.0571C195.26 18.8912 194.891 18.7252 194.486 18.5593L191.997 17.4807C191.554 17.2964 191.112 17.0659 190.669 16.7894C190.245 16.5128 189.858 16.1809 189.508 15.7938C189.157 15.4066 188.872 14.9549 188.65 14.4386C188.448 13.9224 188.346 13.3324 188.346 12.6687C188.346 11.9496 188.494 11.2859 188.789 10.6775C189.102 10.0506 189.526 9.50674 190.061 9.04582C190.595 8.58489 191.231 8.22537 191.969 7.96725C192.725 7.70914 193.545 7.58008 194.43 7.58008C195.481 7.58008 196.495 7.7921 197.472 8.21615C198.45 8.62177 199.288 9.17488 199.989 9.87548L198.357 11.922C197.767 11.4426 197.159 11.0647 196.532 10.7881C195.905 10.5116 195.205 10.3733 194.43 10.3733C193.564 10.3733 192.872 10.5669 192.356 10.954C191.84 11.3228 191.582 11.839 191.582 12.5028C191.582 12.8531 191.656 13.1573 191.803 13.4154C191.969 13.6551 192.181 13.8763 192.439 14.0791C192.716 14.2635 193.029 14.4386 193.379 14.6046C193.73 14.7521 194.089 14.8996 194.458 15.0471L196.919 16.0703C197.454 16.2916 197.943 16.5497 198.385 16.8447C198.828 17.1397 199.205 17.4807 199.519 17.8679C199.851 18.2551 200.109 18.7068 200.293 19.223C200.478 19.7208 200.57 20.3016 200.57 20.9653C200.57 21.7028 200.422 22.3942 200.127 23.0395C199.832 23.6848 199.399 24.2563 198.828 24.7541C198.274 25.2335 197.592 25.6207 196.781 25.9157C195.988 26.1922 195.085 26.3305 194.071 26.3305C192.854 26.3305 191.674 26.1 190.531 25.6391C189.406 25.1782 188.411 24.5237 187.544 23.6756L189.425 21.4908Z" fill="white"></path>
                        <path d="M203.335 6.47363H206.516V11.5069L206.405 14.1342C206.977 13.5995 207.604 13.1294 208.286 12.7238C208.986 12.2997 209.807 12.0877 210.747 12.0877C212.204 12.0877 213.264 12.5578 213.927 13.4981C214.591 14.42 214.923 15.7474 214.923 17.4805V25.9984H211.743V17.8953C211.743 16.7707 211.577 15.9779 211.245 15.517C210.913 15.0561 210.369 14.8256 209.613 14.8256C209.023 14.8256 208.498 14.9731 208.037 15.2681C207.594 15.5446 207.087 15.9595 206.516 16.5126V25.9984H203.335V6.47363Z" fill="white"></path>
                        <path d="M217.689 22.3481C217.689 20.8916 218.325 19.7669 219.597 18.9741C220.869 18.1813 222.897 17.6282 225.681 17.3148C225.681 16.9645 225.635 16.6326 225.543 16.3192C225.451 15.9873 225.303 15.7015 225.1 15.4619C224.916 15.2037 224.667 15.0102 224.354 14.8811C224.059 14.7336 223.681 14.6598 223.22 14.6598C222.538 14.6598 221.874 14.7889 221.229 15.047C220.602 15.3051 219.993 15.6186 219.403 15.9873L218.242 13.8578C218.998 13.3785 219.837 12.9636 220.758 12.6133C221.699 12.263 222.713 12.0879 223.8 12.0879C225.515 12.0879 226.787 12.5949 227.617 13.6089C228.447 14.6045 228.861 16.0518 228.861 17.9509V25.9986H226.262L226.013 24.5052H225.93C225.322 25.0214 224.667 25.4547 223.966 25.805C223.284 26.1553 222.538 26.3305 221.726 26.3305C220.528 26.3305 219.551 25.9709 218.795 25.2519C218.057 24.5144 217.689 23.5465 217.689 22.3481ZM220.786 22.0992C220.786 22.7076 220.961 23.1501 221.311 23.4266C221.68 23.7032 222.15 23.8415 222.722 23.8415C223.275 23.8415 223.782 23.7124 224.243 23.4543C224.704 23.1962 225.183 22.8274 225.681 22.3481V19.306C224.759 19.4166 223.985 19.5641 223.358 19.7485C222.731 19.9328 222.224 20.1449 221.837 20.3845C221.468 20.6058 221.201 20.8639 221.035 21.1589C220.869 21.4539 220.786 21.7673 220.786 22.0992Z" fill="white"></path>
                        <path d="M232.014 12.4198H234.641L234.863 14.8258H234.973C235.453 13.9408 236.033 13.2679 236.716 12.8069C237.398 12.3276 238.098 12.0879 238.817 12.0879C239.463 12.0879 239.979 12.1801 240.366 12.3644L239.813 15.13C239.573 15.0562 239.352 15.0009 239.149 14.9641C238.946 14.9272 238.698 14.9087 238.403 14.9087C237.868 14.9087 237.306 15.1208 236.716 15.5448C236.126 15.9504 235.619 16.6695 235.195 17.702V25.9986H232.014V12.4198Z" fill="white"></path>
                        <path d="M245.067 27.1048V31.3638H241.887V12.4198H244.514L244.736 13.8578H244.846C245.418 13.3785 246.054 12.9636 246.754 12.6133C247.455 12.263 248.183 12.0879 248.939 12.0879C249.787 12.0879 250.534 12.2538 251.179 12.5857C251.843 12.8991 252.405 13.36 252.866 13.9685C253.327 14.5769 253.677 15.3051 253.917 16.1532C254.157 17.0013 254.277 17.9509 254.277 19.0018C254.277 20.1633 254.111 21.205 253.779 22.1268C253.465 23.0302 253.041 23.7954 252.507 24.4222C251.972 25.0307 251.354 25.5008 250.654 25.8327C249.953 26.1645 249.225 26.3305 248.469 26.3305C247.879 26.3305 247.289 26.2014 246.699 25.9433C246.109 25.6852 245.538 25.3164 244.984 24.8371L245.067 27.1048ZM245.067 22.5693C245.565 22.9934 246.045 23.2884 246.505 23.4543C246.966 23.6202 247.4 23.7032 247.805 23.7032C248.709 23.7032 249.465 23.316 250.073 22.5417C250.681 21.7489 250.986 20.5781 250.986 19.0294C250.986 17.6651 250.755 16.605 250.294 15.849C249.833 15.0931 249.087 14.7152 248.054 14.7152C247.095 14.7152 246.1 15.2222 245.067 16.2362V22.5693Z" fill="white"></path>
                        <path d="M253.444 10.4444C253.191 10.4444 252.954 10.399 252.734 10.3081C252.513 10.2108 252.319 10.0778 252.15 9.90916C251.988 9.74049 251.858 9.53938 251.761 9.30584C251.663 9.0723 251.615 8.8128 251.615 8.52736C251.615 8.24192 251.663 7.98242 251.761 7.74888C251.858 7.51533 251.988 7.31423 252.15 7.14556C252.319 6.97689 252.513 6.84714 252.734 6.75632C252.954 6.65901 253.191 6.61035 253.444 6.61035C253.697 6.61035 253.934 6.65901 254.154 6.75632C254.382 6.84714 254.576 6.97689 254.738 7.14556C254.907 7.31423 255.04 7.51533 255.137 7.74888C255.235 7.98242 255.283 8.24192 255.283 8.52736C255.283 8.8128 255.235 9.0723 255.137 9.30584C255.04 9.53938 254.907 9.74049 254.738 9.90916C254.576 10.0778 254.382 10.2108 254.154 10.3081C253.934 10.399 253.697 10.4444 253.444 10.4444ZM253.444 10.0843C253.645 10.0843 253.833 10.0486 254.009 9.97728C254.19 9.89943 254.346 9.79239 254.476 9.65616C254.605 9.51992 254.706 9.35774 254.777 9.16961C254.855 8.97499 254.894 8.7609 254.894 8.52736C254.894 8.3003 254.855 8.09271 254.777 7.90457C254.706 7.70995 254.605 7.54453 254.476 7.40829C254.346 7.26557 254.19 7.15529 254.009 7.07744C253.833 6.99959 253.645 6.96067 253.444 6.96067C253.237 6.96067 253.045 6.99959 252.87 7.07744C252.695 7.15529 252.542 7.26557 252.413 7.40829C252.289 7.54453 252.189 7.70995 252.111 7.90457C252.04 8.09271 252.004 8.3003 252.004 8.52736C252.004 8.7609 252.04 8.97499 252.111 9.16961C252.189 9.35774 252.289 9.51992 252.413 9.65616C252.542 9.79239 252.695 9.89943 252.87 9.97728C253.045 10.0486 253.237 10.0843 253.444 10.0843ZM252.743 7.51534H253.483C253.691 7.51534 253.869 7.56399 254.018 7.6613C254.167 7.75212 254.242 7.91431 254.242 8.14785C254.242 8.26462 254.21 8.37491 254.145 8.4787C254.08 8.57601 253.992 8.64413 253.882 8.68306L254.33 9.49073H253.882L253.541 8.80956H253.142V9.49073H252.743V7.51534ZM253.395 8.49817C253.674 8.49817 253.814 8.38788 253.814 8.16731C253.814 8.07 253.785 7.99215 253.726 7.93377C253.668 7.87538 253.564 7.84619 253.415 7.84619H253.142V8.49817H253.395Z" fill="white"></path>
                    </g>
                </g>
                <defs>
                    <clipPath id="a">
                        <rect width="255.665" height="33" fill="white"></rect>
                    </clipPath>
                    <clipPath id="b">
                        <rect width="255.665" height="26.0001" fill="white" transform="translate(0 6)"></rect>
                    </clipPath>
                </defs>
            </svg>